<?xml version="1.0"?>
<svg width="373.5pt" height="150.75pt" viewBox="0 0 1024 413" version="1.1" xmlns="http://www.w3.org/2000/svg">
<path fill="#f1f1f1" opacity="1.00" d=" M 200.34 0.00 L 213.41 0.00 C 248.53 1.27 283.33 11.39 313.37 29.68 C 348.04 50.60 376.32 81.92 393.53 118.57 C 409.45 152.19 415.82 190.18 412.09 227.17 C 407.45 275.86 384.51 322.42 349.01 356.02 C 335.34 369.04 319.88 380.16 303.22 389.03 C 293.56 354.94 277.05 322.78 254.90 295.12 C 243.89 280.97 231.24 268.19 217.78 256.39 C 218.01 256.12 218.48 255.57 218.71 255.30 C 240.26 251.15 261.70 246.49 283.14 241.85 C 293.68 253.45 310.45 259.17 325.82 255.77 C 326.40 255.59 327.55 255.24 328.13 255.06 C 336.01 253.53 342.91 248.94 348.83 243.69 C 352.28 246.67 354.00 252.44 359.01 253.05 C 365.82 251.85 371.10 246.46 374.84 240.93 C 383.98 226.43 385.51 207.62 379.27 191.70 C 373.68 176.95 361.53 164.89 346.73 159.43 C 337.97 155.99 328.40 155.38 319.11 156.30 C 289.33 132.70 259.42 109.25 229.47 85.86 C 208.55 71.36 182.48 64.32 157.11 66.51 C 131.58 68.53 106.94 79.81 88.70 97.77 C 70.48 115.49 58.59 139.66 56.01 164.97 C 53.76 182.84 57.01 200.92 61.88 218.10 C 69.84 244.67 81.48 269.99 94.53 294.41 C 99.71 303.40 103.68 313.01 108.28 322.30 C 86.16 323.42 64.02 326.21 42.65 332.16 C 16.12 297.86 1.07 255.00 0.00 211.67 L 0.00 200.30 C 0.90 174.35 6.45 148.54 16.80 124.72 C 33.60 85.63 62.84 52.07 99.20 30.01 C 129.54 11.41 164.79 1.13 200.34 0.00 Z" />
<path fill="#f1f1f1" opacity="1.00" d=" M 204.55 131.75 C 212.26 129.45 221.07 131.57 226.90 137.12 C 233.19 142.89 235.74 152.28 233.35 160.46 C 230.79 169.86 221.74 177.01 211.99 177.25 C 204.33 177.69 196.66 173.94 192.20 167.72 C 187.40 161.23 186.42 152.17 189.70 144.80 C 192.38 138.52 197.98 133.60 204.55 131.75 M 213.61 143.50 C 209.50 144.56 205.97 147.76 204.84 151.90 C 202.62 158.02 206.66 165.38 212.84 167.17 C 220.18 169.91 228.80 163.67 228.98 155.93 C 229.44 148.14 221.15 141.26 213.61 143.50 Z" />
<path fill="#0b0b0b" opacity="1.00" d=" M 603.06 24.95 C 621.12 24.93 639.18 24.93 657.24 24.94 C 657.27 49.48 657.24 74.02 657.25 98.56 C 661.09 90.56 666.27 82.81 673.99 78.10 C 682.54 72.73 693.24 71.89 702.99 73.77 C 710.35 75.16 717.32 79.22 721.54 85.50 C 726.79 93.23 728.30 102.81 728.43 111.97 C 728.45 129.09 728.44 146.22 728.43 163.34 C 733.43 163.41 738.43 163.35 743.44 163.39 C 743.40 170.41 743.51 177.43 743.38 184.46 C 721.74 184.44 700.10 184.39 678.47 184.49 C 678.25 177.45 678.42 170.41 678.38 163.38 C 682.06 163.37 685.74 163.37 689.43 163.37 C 689.45 147.59 689.43 131.81 689.44 116.03 C 689.40 110.58 688.61 104.43 684.34 100.58 C 679.37 96.47 671.58 96.68 666.42 100.34 C 660.19 104.76 657.38 112.63 657.28 120.03 C 657.20 134.48 657.27 148.92 657.25 163.36 C 660.78 163.38 664.32 163.38 667.86 163.36 C 667.91 170.38 667.85 177.39 667.90 184.40 C 646.28 184.48 624.67 184.44 603.05 184.42 C 603.08 177.40 603.02 170.38 603.09 163.36 C 608.14 163.38 613.19 163.38 618.24 163.36 C 618.25 124.24 618.25 85.13 618.24 46.01 C 613.18 45.99 608.12 46.01 603.06 46.00 C 603.06 38.98 603.05 31.96 603.06 24.95 Z" />
<path fill="#0b0b0b" opacity="1.00" d=" M 524.41 51.64 C 537.03 48.97 549.63 46.20 562.24 43.52 C 562.27 54.53 562.22 65.55 562.27 76.57 C 573.79 76.58 585.31 76.51 596.83 76.60 C 596.82 83.17 596.75 89.74 596.88 96.31 C 585.34 96.61 573.80 96.36 562.27 96.43 C 562.22 112.63 562.27 128.82 562.24 145.02 C 562.23 149.76 562.22 154.92 564.98 159.02 C 568.11 163.84 576.18 164.40 579.72 159.76 C 582.13 156.62 583.23 152.75 584.39 149.03 C 589.67 150.22 594.90 151.62 600.16 152.95 C 597.79 163.11 593.90 173.81 585.27 180.31 C 576.68 186.70 565.37 187.53 555.05 186.62 C 546.45 185.90 537.55 182.84 531.83 176.07 C 525.25 168.36 523.49 157.84 523.28 148.01 C 523.19 130.82 523.29 113.63 523.23 96.44 C 517.09 96.43 510.95 96.46 504.81 96.42 C 504.81 89.81 504.81 83.19 504.81 76.58 C 511.32 76.54 517.83 76.56 524.34 76.57 C 524.44 68.26 524.30 59.95 524.41 51.64 Z" />
<path fill="#0b0b0b" opacity="1.00" d=" M 88.70 97.77 C 106.94 79.81 131.58 68.53 157.11 66.51 C 182.48 64.32 208.55 71.36 229.47 85.86 C 215.49 81.56 200.51 80.55 186.12 83.21 C 185.52 83.35 184.32 83.62 183.72 83.75 C 150.89 90.54 123.47 117.93 116.87 150.83 C 115.78 151.71 115.52 152.80 116.10 154.10 C 113.32 171.13 115.26 188.98 122.35 204.76 C 130.29 222.77 144.50 237.89 161.96 246.96 C 179.22 255.99 199.58 259.05 218.71 255.30 C 218.48 255.57 218.01 256.12 217.78 256.39 C 231.24 268.19 243.89 280.97 254.90 295.12 C 254.45 294.61 253.54 293.60 253.08 293.10 C 210.02 320.30 174.91 359.94 153.24 406.05 C 109.55 394.54 70.08 368.03 42.65 332.16 C 64.02 326.21 86.16 323.42 108.28 322.30 C 103.68 313.01 99.71 303.40 94.53 294.41 C 81.48 269.99 69.84 244.67 61.88 218.10 C 57.01 200.92 53.76 182.84 56.01 164.97 C 58.59 139.66 70.48 115.49 88.70 97.77 Z" />
<path fill="#0b0b0b" opacity="1.00" d=" M 769.33 82.22 C 784.16 72.59 803.05 70.84 820.01 74.89 C 831.02 77.51 841.27 83.95 847.58 93.47 C 855.82 105.74 857.89 121.11 856.97 135.59 C 832.49 135.54 808.01 135.57 783.53 135.57 C 784.25 144.83 785.54 155.46 793.13 161.80 C 800.58 167.36 810.86 167.48 819.56 165.41 C 827.72 163.30 832.49 155.63 835.03 148.12 C 841.91 148.27 848.79 148.13 855.67 148.20 C 854.02 159.23 849.11 170.25 839.98 177.04 C 828.37 185.84 813.07 187.52 798.95 186.77 C 782.85 185.94 766.24 179.92 755.74 167.23 C 745.07 154.58 741.96 136.98 744.39 120.93 C 746.73 105.27 755.89 90.69 769.33 82.22 M 789.25 96.34 C 784.81 103.22 784.08 111.67 783.56 119.63 C 795.50 119.62 807.44 119.62 819.39 119.63 C 818.97 111.97 818.50 103.94 814.86 97.03 C 810.05 87.64 794.74 87.63 789.25 96.34 Z" />
<path fill="#0b0b0b" opacity="1.00" d=" M 213.61 143.50 C 221.15 141.26 229.44 148.14 228.98 155.93 C 228.80 163.67 220.18 169.91 212.84 167.17 C 206.66 165.38 202.62 158.02 204.84 151.90 C 205.97 147.76 209.50 144.56 213.61 143.50 Z" />
<path fill="#0b0b0b" opacity="1.00" d=" M 569.59 202.11 C 588.02 202.14 606.45 202.11 624.87 202.13 C 624.89 248.27 624.85 294.41 624.89 340.56 C 629.97 340.58 635.05 340.51 640.13 340.61 C 640.05 347.60 640.28 354.60 640.00 361.60 C 622.88 361.44 605.75 361.75 588.63 361.44 C 588.75 353.88 588.64 346.33 588.70 338.78 C 585.38 346.48 580.43 353.75 573.24 358.31 C 564.55 363.93 553.58 365.18 543.55 363.32 C 531.87 361.09 521.95 352.69 516.78 342.13 C 510.52 329.46 509.11 314.96 509.83 301.02 C 510.69 286.91 514.67 272.18 524.68 261.74 C 535.92 249.88 554.80 246.86 569.57 253.39 C 576.42 256.43 581.91 261.93 585.85 268.23 C 585.91 253.20 585.84 238.17 585.89 223.15 C 580.45 223.10 575.02 223.14 569.58 223.12 C 569.55 216.12 569.54 209.11 569.59 202.11 M 563.47 273.63 C 558.01 275.51 555.01 281.06 553.54 286.31 C 551.02 295.63 551.00 305.41 551.34 314.99 C 551.83 322.25 552.54 330.05 556.93 336.15 C 560.68 341.37 568.04 342.79 573.94 340.93 C 579.57 339.03 583.17 333.71 585.23 328.39 C 588.74 319.08 589.08 308.90 588.29 299.08 C 587.50 291.45 585.85 283.31 580.51 277.47 C 576.31 272.84 569.25 271.61 563.47 273.63 Z" />
<path fill="#0b0b0b" opacity="1.00" d=" M 829.06 202.13 C 847.49 202.11 865.92 202.14 884.35 202.11 C 884.42 248.26 884.34 294.41 884.39 340.56 C 889.41 340.54 894.44 340.63 899.48 340.49 C 899.81 347.50 899.55 354.54 899.62 361.56 C 882.48 361.57 865.34 361.56 848.20 361.57 C 848.11 354.34 848.31 347.10 848.09 339.87 C 844.56 345.83 841.15 352.16 835.44 356.38 C 826.42 363.61 814.02 365.43 802.89 363.28 C 792.17 361.19 782.87 353.85 777.53 344.43 C 771.62 334.01 769.52 321.88 769.18 310.03 C 768.81 293.79 771.76 276.34 782.52 263.57 C 793.89 249.83 815.00 246.20 830.72 254.19 C 836.85 257.27 841.57 262.46 845.38 268.06 C 845.35 253.08 845.39 238.10 845.36 223.12 C 839.93 223.12 834.49 223.13 829.06 223.12 C 829.05 216.12 829.05 209.12 829.06 202.13 M 823.35 273.50 C 819.38 274.72 816.46 278.04 814.77 281.70 C 812.25 287.12 811.45 293.13 810.99 299.03 C 810.52 306.68 810.49 314.39 811.49 321.99 C 812.27 327.27 813.54 332.80 817.09 336.96 C 820.92 341.47 827.59 342.59 833.09 341.05 C 839.03 339.21 842.78 333.61 844.87 328.05 C 848.35 318.50 848.63 308.09 847.69 298.06 C 846.85 290.87 845.18 283.27 840.24 277.71 C 836.15 272.99 829.15 271.62 823.35 273.50 Z" />
<path fill="#0b0b0b" opacity="1.00" d=" M 692.63 250.68 C 708.70 248.64 725.82 251.50 739.39 260.67 C 749.49 267.41 757.07 277.78 760.41 289.45 C 765.28 306.42 762.73 325.79 752.15 340.14 C 742.62 353.36 727.13 361.56 711.10 363.53 C 695.08 365.49 678.05 362.58 664.56 353.41 C 654.44 346.62 646.88 336.17 643.59 324.44 C 638.89 307.75 641.34 288.79 651.54 274.57 C 660.97 261.15 676.50 252.75 692.63 250.68 M 697.38 267.61 C 692.17 268.57 688.64 273.18 687.07 277.97 C 684.03 286.96 683.94 296.60 683.77 305.99 C 683.83 315.48 683.95 325.17 686.73 334.33 C 688.27 339.35 691.42 344.49 696.73 346.12 C 702.38 347.86 709.53 347.29 713.55 342.49 C 717.40 337.79 718.52 331.56 719.35 325.70 C 720.57 314.87 720.59 303.90 719.77 293.04 C 719.02 285.92 718.02 278.32 713.60 272.43 C 709.88 267.56 703.08 266.38 697.38 267.61 Z" />
<path fill="#0b0b0b" opacity="1.00" d=" M 950.59 250.72 C 966.91 248.58 984.36 251.51 998.08 260.96 C 1008.40 267.99 1015.99 278.85 1019.07 290.96 C 1023.38 307.60 1020.66 326.33 1010.31 340.26 C 1000.91 353.23 985.74 361.35 969.99 363.45 C 953.99 365.55 936.93 362.77 923.33 353.77 C 912.89 346.93 905.08 336.24 901.77 324.21 C 897.44 308.52 899.34 290.89 908.13 277.04 C 917.28 262.33 933.58 252.95 950.59 250.72 M 955.43 267.65 C 948.73 269.04 945.44 275.92 944.13 282.00 C 941.76 292.83 941.89 304.01 942.17 315.03 C 942.66 323.39 943.18 332.19 947.33 339.68 C 952.23 349.09 968.10 349.76 973.34 340.35 C 976.68 334.49 977.47 327.63 978.08 321.03 C 978.77 310.82 978.82 300.53 977.74 290.35 C 976.90 284.05 975.73 277.38 971.71 272.26 C 967.92 267.47 961.11 266.37 955.43 267.65 Z" />
<path fill="#ffa816" opacity="1.00" d=" M 186.12 83.21 C 200.51 80.55 215.49 81.56 229.47 85.86 C 259.42 109.25 289.33 132.70 319.11 156.30 C 304.85 158.50 291.41 166.12 282.74 177.73 C 275.80 186.62 271.96 197.63 271.02 208.81 C 270.81 220.80 274.86 233.04 283.14 241.85 C 261.70 246.49 240.26 251.15 218.71 255.30 C 199.58 259.05 179.22 255.99 161.96 246.96 C 144.50 237.89 130.29 222.77 122.35 204.76 C 115.26 188.98 113.32 171.13 116.10 154.10 C 117.24 153.23 117.50 152.14 116.87 150.83 C 123.47 117.93 150.89 90.54 183.72 83.75 C 184.32 83.62 185.52 83.35 186.12 83.21 M 204.55 131.75 C 197.98 133.60 192.38 138.52 189.70 144.80 C 186.42 152.17 187.40 161.23 192.20 167.72 C 196.66 173.94 204.33 177.69 211.99 177.25 C 221.74 177.01 230.79 169.86 233.35 160.46 C 235.74 152.28 233.19 142.89 226.90 137.12 C 221.07 131.57 212.26 129.45 204.55 131.75 Z" />
<path fill="#a92822" opacity="1.00" d=" M 183.72 83.75 C 184.32 83.62 185.52 83.35 186.12 83.21 C 185.52 83.35 184.32 83.62 183.72 83.75 Z" />
<path fill="#a92822" opacity="1.00" d=" M 116.10 154.10 C 115.52 152.80 115.78 151.71 116.87 150.83 C 117.50 152.14 117.24 153.23 116.10 154.10 Z" />
<path fill="#a92822" opacity="1.00" d=" M 271.02 208.81 C 274.54 211.73 278.20 214.51 282.22 216.72 C 297.54 225.32 314.51 230.25 331.02 235.99 C 337.05 238.24 343.95 239.16 348.83 243.69 C 342.91 248.94 336.01 253.53 328.13 255.06 L 327.30 254.73 C 326.93 254.99 326.19 255.51 325.82 255.77 C 310.45 259.17 293.68 253.45 283.14 241.85 C 274.86 233.04 270.81 220.80 271.02 208.81 Z" />
<path fill="#e83931" opacity="1.00" d=" M 282.74 177.73 C 291.41 166.12 304.85 158.50 319.11 156.30 C 328.40 155.38 337.97 155.99 346.73 159.43 C 361.53 164.89 373.68 176.95 379.27 191.70 C 385.51 207.62 383.98 226.43 374.84 240.93 C 371.10 246.46 365.82 251.85 359.01 253.05 C 354.00 252.44 352.28 246.67 348.83 243.69 C 343.95 239.16 337.05 238.24 331.02 235.99 C 314.51 230.25 297.54 225.32 282.22 216.72 C 278.20 214.51 274.54 211.73 271.02 208.81 C 271.96 197.63 275.80 186.62 282.74 177.73 Z" />
<path fill="#e83931" opacity="1.00" d=" M 325.82 255.77 C 326.19 255.51 326.93 254.99 327.30 254.73 L 328.13 255.06 C 327.55 255.24 326.40 255.59 325.82 255.77 Z" />
<path fill="#2f58ff" opacity="1.00" d=" M 153.24 406.05 C 174.91 359.94 210.02 320.30 253.08 293.10 C 253.54 293.60 254.45 294.61 254.90 295.12 C 277.05 322.78 293.56 354.94 303.22 389.03 C 275.94 403.60 245.34 411.58 214.49 413.00 L 199.43 413.00 C 183.85 412.23 168.31 410.12 153.24 406.05 Z" />
</svg>